<svg width="23" height="25" fill="none" xmlns="http://www.w3.org/2000/svg"><path d="M15.075 11.875c0 .762-.563 1.387-1.275 1.387-.7 0-1.275-.625-1.275-1.387s.563-1.387 1.275-1.387 1.275.625 1.275 1.387zm-5.837-1.387c-.713 0-1.275.625-1.275 1.387s.574 1.387 1.275 1.387c.712 0 1.274-.625 1.274-1.387.013-.762-.562-1.387-1.274-1.387zm13.2-7.913V25c-3.15-2.783-2.142-1.862-5.8-5.262l.662 2.312H3.125a2.569 2.569 0 01-2.563-2.575v-16.9A2.569 2.569 0 013.126 0h16.75a2.569 2.569 0 012.563 2.575zm-3.563 11.85c0-4.025-1.8-7.288-1.8-7.288-1.8-1.35-3.512-1.312-3.512-1.312l-.176.2c2.125.65 3.113 1.587 3.113 1.587-2.97-1.627-6.457-1.627-9.338-.362-.462.213-.737.362-.737.362s1.038-.987 3.288-1.637l-.125-.15s-1.713-.038-3.513 1.313c0 0-1.8 3.262-1.8 7.287 0 0 1.05 1.813 3.813 1.9 0 0 .462-.563.837-1.037-1.588-.476-2.188-1.476-2.188-1.476.184.13.488.296.513.313 2.11 1.181 5.107 1.569 7.8.438a7.16 7.16 0 001.438-.738s-.625 1.025-2.263 1.488a56.5 56.5 0 00.825 1.012c2.762-.087 3.825-1.9 3.825-1.9z" fill="#fff" fill-opacity=".5"/></svg>