<svg width="20" height="20" fill="none" xmlns="http://www.w3.org/2000/svg"><g clip-path="url(#clip0_1_107)"><path d="M19.727 17.293l-3.895-3.895a.937.937 0 00-.664-.273h-.637a8.085 8.085 0 001.719-5A8.124 8.124 0 008.125 0 8.124 8.124 0 000 8.125a8.124 8.124 0 008.125 8.125 8.08 8.08 0 005-1.719v.637c0 .25.098.488.273.664l3.895 3.895a.934.934 0 001.324 0l1.106-1.106a.942.942 0 00.004-1.328zM8.125 13.125c-2.762 0-5-2.234-5-5 0-2.762 2.234-5 5-5 2.762 0 5 2.234 5 5 0 2.762-2.234 5-5 5z" fill="#fff" fill-opacity=".5"/></g><defs><clipPath id="clip0_1_107"><path fill="#fff" d="M0 0h20v20H0z"/></clipPath></defs></svg>