<svg width="396" height="60" fill="none" xmlns="http://www.w3.org/2000/svg"><path d="M106.281 40.639v-9.654c0-4.996-4.041-9.037-9.093-9.037h-.393c-1.965 0-3.93.674-4.883 1.853V12.35c0-1.405-1.067-2.134-2.134-2.134-1.066 0-2.132.73-2.132 2.133v35.305c0 1.347 1.066 2.02 2.132 2.02.955 0 1.909-.561 2.077-1.682.786.785 2.414 1.682 4.827 1.682h.506c4.995 0 9.093-4.04 9.093-9.036zm-4.266 0c0 2.638-2.133 4.771-4.827 4.771h-.505c-2.526 0-4.77-1.684-4.77-4.434v-10.44c0-2.583 2.245-4.322 4.77-4.322h.505c2.694 0 4.827 2.133 4.827 4.77v9.655zm22.171 6.903c0-1.066-.674-2.132-2.133-2.132-1.74-.056-3.087-1.403-3.087-3.144V12.35c0-1.404-1.066-2.133-2.133-2.133-1.066 0-2.133.73-2.133 2.133v29.916c0 4.097 3.256 7.41 7.353 7.41 1.459 0 2.133-1.067 2.133-2.134zm24.471-6.903v-9.654a9.03 9.03 0 00-9.036-9.037h-.561a9.03 9.03 0 00-9.037 9.037v9.654a9.03 9.03 0 009.037 9.036h.561a9.03 9.03 0 009.036-9.036zm-4.265 0a4.767 4.767 0 01-4.771 4.771h-.505c-2.694 0-4.827-2.133-4.827-4.771v-9.654a4.767 4.767 0 014.771-4.771h.561a4.767 4.767 0 014.771 4.77v9.655zm30.14 0c0-1.459-1.066-2.189-2.133-2.189-1.009 0-2.077.73-2.132 2.189-.113 2.638-2.134 4.771-4.771 4.771h-.506c-2.694 0-4.826-2.133-4.826-4.771v-9.654a4.766 4.766 0 014.77-4.771h.561c2.638 0 4.659 1.964 4.771 4.827.056 1.404 1.123 2.077 2.133 2.077 1.067 0 2.133-.73 2.133-2.133 0-4.996-4.097-9.037-9.037-9.037h-.561c-4.939 0-9.037 3.985-9.037 9.037v9.654a9.03 9.03 0 009.037 9.036h.561a9.03 9.03 0 009.037-9.036zm26.885 6.903c0-.336-.056-.729-.28-1.066l-7.69-13.47 6.96-7.41c.449-.449.617-.954.617-1.459 0-1.123-.954-2.189-2.188-2.189-.506 0-1.067.224-1.516.73l-10.665 11.337V12.35c0-1.404-1.066-2.133-2.133-2.133-1.066 0-2.133.73-2.133 2.133v35.192c0 1.404 1.067 2.133 2.133 2.133 1.067 0 2.133-.73 2.133-2.133v-7.24l3.761-4.042 7.016 12.292c.449.787 1.122 1.123 1.796 1.123 1.292 0 2.189-1.01 2.189-2.133zm24.247-6.903c0-1.459-1.067-2.189-2.133-2.189-1.01 0-2.077.73-2.133 2.189-.112 2.638-2.133 4.771-4.77 4.771h-.507c-2.694 0-4.826-2.133-4.826-4.771v-9.654a4.767 4.767 0 014.771-4.771h.562c2.637 0 4.658 1.964 4.77 4.827.056 1.404 1.124 2.077 2.133 2.077 1.067 0 2.133-.73 2.133-2.133 0-4.996-4.097-9.037-9.036-9.037h-.562c-4.939 0-9.036 3.985-9.036 9.037v9.654a9.03 9.03 0 009.036 9.036h.562a9.03 9.03 0 009.036-9.036zm26.493 6.903V30.985a9.031 9.031 0 00-9.038-9.037h-.448c-1.965 0-3.93.674-4.885 1.684V12.35c0-1.404-1.066-2.133-2.131-2.133-1.067 0-2.133.73-2.133 2.133v35.192c0 1.404 1.067 2.133 2.133 2.133s2.131-.73 2.131-2.133V30.704c0-2.919 2.527-4.49 5.11-4.49 2.468 0 4.994 1.516 4.994 4.77v16.558c0 1.404 1.067 2.133 2.133 2.133 1.067 0 2.134-.73 2.134-2.133zm28.063-.054c0-.9-.561-1.797-1.796-2.022-1.01-.168-1.459-.843-1.459-1.852V30.59c0-4.826-3.817-8.643-8.813-8.643h-.393c-2.974 0-6.567 1.179-8.363 5.22a2.205 2.205 0 00-.225 1.01c0 1.18 1.067 1.965 2.134 1.965.73 0 1.459-.337 1.908-1.123 1.067-1.852 2.245-2.806 4.547-2.806h.393c2.47 0 4.546 1.235 4.546 4.545 0 .281 0 .73-.167.955-1.347 1.909-13.808.336-14.201 9.205v.673c0 5.22 4.49 8.083 9.036 8.083h.506a9.282 9.282 0 006.062-2.244c.729 1.066 1.908 1.908 3.816 2.188.113.056.281.056.394.056 1.346 0 2.075-1.066 2.075-2.187zm-7.521-6.85c0 2.64-2.189 4.772-4.827 4.772h-.505c-2.863 0-4.771-1.515-4.771-3.93v-.449c.168-3.929 5.95-3.704 10.103-4.826v4.434zm18.522 6.904v-23.46c0-1.404-1.067-2.134-2.133-2.134-1.065 0-2.132.73-2.132 2.133v23.461c0 1.404 1.067 2.133 2.132 2.133 1.066 0 2.133-.73 2.133-2.133zm27.614 0V30.985c0-6.174-4.209-9.037-8.98-9.037h-.505c-1.965 0-3.817.674-4.827 1.684-.224-1.123-1.18-1.684-2.133-1.684-1.123 0-2.189.786-2.189 2.133v23.461c0 1.404 1.066 2.133 2.133 2.133s2.133-.73 2.133-2.133V30.985c0-2.638 2.189-4.771 4.826-4.771h.506c2.694 0 4.827 2.133 4.827 4.77v16.558c0 1.404 1.067 2.133 2.133 2.133 1.067 0 2.076-.73 2.076-2.133zm22.026 0v-23.46c0-1.404-1.066-2.134-2.133-2.134-1.065 0-2.132.73-2.132 2.133v23.461c0 1.404 1.067 2.133 2.132 2.133 1.067 0 2.133-.73 2.133-2.133zm26.997-6.903v-9.654a9.03 9.03 0 00-9.036-9.037h-.562a9.03 9.03 0 00-9.035 9.037v9.654a9.03 9.03 0 009.035 9.036h.562a9.03 9.03 0 009.036-9.036zm-4.265 0a4.767 4.767 0 01-4.771 4.771h-.505c-2.696 0-4.827-2.133-4.827-4.771v-9.654a4.766 4.766 0 014.77-4.771h.562a4.767 4.767 0 014.771 4.77v9.655zM45.38 28.577a2.36 2.36 0 00-2.356 2.356 2.36 2.36 0 002.356 2.356 2.36 2.36 0 002.357-2.356 2.36 2.36 0 00-2.357-2.356zm10.897-6.539a2.358 2.358 0 00-2.356 2.357c0 1.3 1.056 2.356 2.356 2.356a2.36 2.36 0 002.357-2.356 2.36 2.36 0 00-2.357-2.357zM67.174 15.5a2.36 2.36 0 00-2.357 2.356 2.36 2.36 0 002.357 2.358 2.36 2.36 0 002.356-2.358 2.358 2.358 0 00-2.356-2.356zM34.483 8.962a2.36 2.36 0 00-2.357 2.357 2.36 2.36 0 002.357 2.356 2.36 2.36 0 002.357-2.356 2.36 2.36 0 00-2.357-2.357zM45.38 2.424a2.36 2.36 0 00-2.356 2.357 2.36 2.36 0 002.356 2.357 2.36 2.36 0 002.357-2.357 2.36 2.36 0 00-2.357-2.357zm0 13.076a2.359 2.359 0 00-2.356 2.356 2.36 2.36 0 002.356 2.358 2.36 2.36 0 002.357-2.358A2.36 2.36 0 0045.38 15.5zm10.897-6.538a2.359 2.359 0 00-2.356 2.357 2.358 2.358 0 002.356 2.356 2.36 2.36 0 002.357-2.356 2.36 2.36 0 00-2.357-2.357zm0 26.153a2.358 2.358 0 00-2.356 2.355c0 1.3 1.056 2.357 2.356 2.357a2.36 2.36 0 002.357-2.357 2.36 2.36 0 00-2.357-2.355zm10.897-6.538a2.36 2.36 0 00-2.357 2.356 2.36 2.36 0 002.357 2.356c1.3 0 2.356-1.056 2.356-2.356a2.358 2.358 0 00-2.356-2.356zM56.277 48.19a2.358 2.358 0 00-2.356 2.357c0 1.3 1.056 2.356 2.356 2.356a2.36 2.36 0 002.357-2.356 2.36 2.36 0 00-2.357-2.356zm10.897-6.537a2.36 2.36 0 00-2.357 2.356 2.36 2.36 0 002.357 2.356c1.3 0 2.356-1.057 2.356-2.356 0-1.3-1.056-2.356-2.356-2.356zM45.38 54.729a2.36 2.36 0 00-2.356 2.356 2.36 2.36 0 002.356 2.356 2.36 2.36 0 002.357-2.356 2.36 2.36 0 00-2.357-2.356zm0-13.076a2.359 2.359 0 00-2.356 2.356 2.36 2.36 0 002.356 2.356 2.36 2.36 0 002.357-2.356 2.36 2.36 0 00-2.357-2.356zM34.483 22.038a2.36 2.36 0 00-2.357 2.357c0 1.3 1.058 2.356 2.357 2.356a2.36 2.36 0 002.357-2.356 2.36 2.36 0 00-2.357-2.357zm0 26.152a2.36 2.36 0 00-2.357 2.357 2.36 2.36 0 002.357 2.356 2.36 2.36 0 002.357-2.356c0-1.3-1.057-2.356-2.357-2.356zm0-13.075a2.36 2.36 0 00-2.357 2.355 2.36 2.36 0 002.357 2.357 2.36 2.36 0 002.357-2.357 2.359 2.359 0 00-2.357-2.355zM23.587 15.5a2.359 2.359 0 00-2.357 2.356 2.36 2.36 0 002.357 2.358 2.36 2.36 0 002.357-2.358 2.36 2.36 0 00-2.357-2.356zm0 26.152a2.359 2.359 0 00-2.357 2.357c0 1.3 1.057 2.356 2.357 2.356a2.36 2.36 0 002.357-2.356 2.36 2.36 0 00-2.357-2.357zm0-13.075a2.359 2.359 0 00-2.357 2.356c0 1.3 1.057 2.356 2.357 2.356a2.36 2.36 0 002.357-2.356 2.36 2.36 0 00-2.357-2.356zM289.053 10.1a2.147 2.147 0 00-2.145 2.144c0 1.183.963 2.145 2.145 2.145a2.148 2.148 0 002.145-2.145 2.146 2.146 0 00-2.145-2.144zm49.657 0a2.147 2.147 0 00-2.145 2.144c0 1.183.963 2.145 2.145 2.145a2.145 2.145 0 000-4.288zm-11.249 35.464a2.136 2.136 0 00-2.133 2.132c0 1.176.958 2.133 2.133 2.133a2.135 2.135 0 002.133-2.133 2.134 2.134 0 00-2.133-2.132z" fill="#fff" fill-opacity=".5"/></svg>